<svg width="58" height="58" viewBox="0 0 58 58" fill="none" xmlns="http://www.w3.org/2000/svg">
<circle cx="29" cy="29" r="29" fill="white"/>
<g clip-path="url(#clip0_24723_616)">
<path d="M29 37.7C33.785 37.7 37.7 33.785 37.7 29C37.7 24.215 33.785 20.3 29 20.3C24.215 20.3 20.3 24.215 20.3 29C20.3 33.785 24.215 37.7 29 37.7ZM29 0C26.1 0 23.055 0.435 20.3 1.305V17.4C26.68 12.615 35.815 13.92 40.6 20.3C45.385 26.68 44.08 35.815 37.7 40.6C31.32 45.385 22.185 44.08 17.4 37.7C15.515 35.235 14.5 32.19 14.5 29V3.915C0.580029 11.89 -4.05997 29.58 3.91503 43.5C11.89 57.42 29.58 62.06 43.5 54.085C57.42 46.11 62.06 28.42 54.085 14.5C49.01 5.51 39.44 0 29 0Z" fill="#E01F3D"/>
</g>
<defs>
<clipPath id="clip0_24723_616">
<rect width="58" height="58" fill="white"/>
</clipPath>
</defs>
</svg>
