<svg width="50" height="50" viewBox="0 0 50 50" fill="none" xmlns="http://www.w3.org/2000/svg">
<path d="M29.0332 49.6777C28.8281 49.707 28.6133 49.7461 28.4082 49.7754C28.6133 49.7363 28.8184 49.707 29.0332 49.6777Z" fill="#B3B3B3"/>
<path d="M29.5312 49.5898C29.4336 49.6094 29.3359 49.6289 29.2285 49.6387C29.3359 49.6289 29.4336 49.6094 29.5312 49.5898Z" fill="#B3B3B3"/>
<path d="M27.8418 49.834C27.5977 49.8633 27.3535 49.8828 27.1094 49.9023C27.3535 49.8926 27.5977 49.8633 27.8418 49.834Z" fill="#B3B3B3"/>
<path d="M28.3301 49.7754C28.2129 49.7949 28.0957 49.8047 27.9785 49.8144C28.0859 49.8047 28.2129 49.7949 28.3301 49.7754Z" fill="#B3B3B3"/>
<path d="M30.2148 49.4531C30.127 49.4726 30.0391 49.4921 29.9512 49.5117C30.0391 49.4921 30.127 49.4726 30.2148 49.4531Z" fill="#B3B3B3"/>
<path d="M31.9043 49.0333C31.8359 49.0528 31.7578 49.0723 31.6895 49.0919C31.7578 49.0723 31.8262 49.0528 31.9043 49.0333Z" fill="#B3B3B3"/>
<path d="M31.3867 49.1699C31.3086 49.1895 31.2305 49.209 31.1523 49.2285C31.2402 49.2188 31.3086 49.1992 31.3867 49.1699Z" fill="#B3B3B3"/>
<path d="M30.7227 49.3457C30.6445 49.3652 30.5566 49.3848 30.4785 49.4043C30.5566 49.375 30.6445 49.3555 30.7227 49.3457Z" fill="#B3B3B3"/>
<path d="M27.0996 49.9122C26.9727 49.9219 26.8359 49.9317 26.709 49.9415C26.8359 49.9317 26.9727 49.9219 27.0996 49.9122Z" fill="#B3B3B3"/>
<path d="M50 25C50 11.1914 38.8086 0 25 0C11.1914 0 0 11.1914 0 25C0 38.8086 11.1914 50 25 50C25.1465 50 25.293 50 25.4395 49.9902V30.5371H20.0684V24.2773H25.4395V19.668C25.4395 14.3262 28.7012 11.416 33.4668 11.416C35.752 11.416 37.7148 11.582 38.2812 11.6602V17.2461H35C32.4121 17.2461 31.9043 18.4766 31.9043 20.2832V24.2676H38.1055L37.2949 30.5273H31.9043V49.0332C42.3535 46.0352 50 36.416 50 25Z" fill="#B3B3B3"/>
<path d="M26.6504 49.9413C26.3867 49.9609 26.1328 49.9706 25.8691 49.9804C26.1328 49.9706 26.3867 49.9609 26.6504 49.9413Z" fill="#B3B3B3"/>
<path d="M25.8594 49.9805C25.7227 49.9805 25.5859 49.9902 25.4492 49.9902C25.5762 49.9902 25.7129 49.9902 25.8594 49.9805Z" fill="#B3B3B3"/>
</svg>
