<svg width="50" height="50" viewBox="0 0 50 50" fill="none" xmlns="http://www.w3.org/2000/svg">
<path d="M33.6283 4.16663H16.3717C14.4666 4.16663 12.9167 5.71643 12.9167 7.62158V46.5449C12.9167 48.4501 14.4666 49.9999 16.3717 49.9999H33.6284C35.5336 49.9999 37.0834 48.4501 37.0834 46.5449V7.6217C37.0834 5.71643 35.5336 4.16663 33.6283 4.16663ZM35.4166 46.545C35.4166 47.5309 34.6141 48.3334 33.6283 48.3334H16.3717C15.3859 48.3334 14.5834 47.5309 14.5834 46.545V7.6217C14.5834 6.63586 15.3859 5.83337 16.3717 5.83337H33.6284C34.6143 5.83337 35.4168 6.63586 35.4168 7.6217V46.545H35.4166Z" fill="black"/>
<path d="M29.5834 0H20.4167C19.9565 0 19.5834 0.373169 19.5834 0.833374V5C19.5834 5.4602 19.9565 5.83337 20.4167 5.83337H29.5834C30.0436 5.83337 30.4167 5.4602 30.4167 5V0.833374C30.4166 0.373169 30.0436 0 29.5834 0ZM28.75 4.16663H21.25V1.66663H28.75V4.16663Z" fill="black"/>
<path d="M31.1194 22.8856C30.9664 22.645 30.7014 22.4998 30.4166 22.4998H25.4166V14.9998C25.4166 14.6091 25.1451 14.271 24.7639 14.1864C24.3792 14.1022 23.9933 14.2935 23.8281 14.6475L17.9948 27.1475C17.8744 27.4054 17.8943 27.7075 18.0472 27.9475C18.2002 28.1881 18.4652 28.3334 18.75 28.3334H23.75V35.8334C23.75 36.224 24.0215 36.5621 24.4027 36.6467C24.4634 36.6603 24.5239 36.6667 24.5837 36.6667C24.9019 36.6667 25.1993 36.4836 25.3385 36.1857L31.1719 23.6857C31.2922 23.4277 31.2724 23.1256 31.1194 22.8856ZM23.75 26.6666H20.0586L23.75 18.756V26.6666ZM25.4166 32.0773V24.1666H29.108L25.4166 32.0773Z" fill="black"/>
</svg>
