<svg width="50" height="50" viewBox="0 0 50 50" fill="none" xmlns="http://www.w3.org/2000/svg">
<g clip-path="url(#clip0_24_741)">
<path d="M14.9708 0C6.71605 0 0 7.27579 0 16.2591C0.0317662 18.342 0.602868 20.3811 1.6576 22.1775C2.15599 23.0277 2.58274 23.918 2.93344 24.839C3.16602 25.5159 2.94278 26.2658 2.37786 26.7053C1.39499 27.4911 0.825441 28.6832 0.831709 29.9415C0.827764 31.3243 1.51136 32.6185 2.65565 33.3948C3.06703 33.6743 3.31726 34.1359 3.32684 34.6332V41.5854C3.32684 46.1715 6.68444 49.9025 10.8122 49.9025C14.94 49.9025 18.2976 46.1715 18.2976 41.5854C18.285 38.1601 19.7745 34.9014 22.373 32.6695C27.2442 28.6051 30.0244 22.5619 29.9415 16.2183C29.9415 7.27579 23.2255 0 14.9708 0ZM21.2917 31.4062C18.3233 33.9534 16.621 37.674 16.6342 41.5854C16.6342 45.2541 14.0218 48.2391 10.8122 48.2391C7.60265 48.2391 4.99025 45.2541 4.99025 41.5854V34.6332C4.97678 33.6031 4.47131 32.6417 3.63041 32.0466C2.91983 31.5825 2.49254 30.7902 2.49513 29.9415C2.48942 29.1765 2.83983 28.4523 3.44327 27.982C4.55062 27.0949 4.97343 25.603 4.49622 24.2668C4.11317 23.2593 3.64662 22.2856 3.10144 21.3558C2.18489 19.7969 1.68934 18.0265 1.66342 16.2183C1.66342 8.19316 7.63342 1.66342 14.9708 1.66342C22.3081 1.66342 28.2781 8.19316 28.2781 16.2183C28.3542 22.0745 25.788 27.6533 21.2917 31.4062V31.4062Z" fill="black"/>
<path d="M14.9707 4.15854C10.3356 4.15854 6.38335 7.44545 4.84885 12.0398C4.83803 12.0673 4.83055 12.0939 4.82223 12.123C4.38372 13.4571 4.15915 14.8522 4.15686 16.2566C4.15686 17.2546 4.15686 20.307 6.06397 22.2141C6.39032 22.5293 6.90906 22.5248 7.22988 22.204C7.5507 21.8832 7.5552 21.3644 7.24001 21.0381C6.55671 20.2785 6.11793 19.3308 5.9808 18.3184C6.11471 18.3101 6.24695 18.2993 6.38584 18.2993C10.2034 18.2976 13.3073 21.7908 13.3073 26.0824C13.3073 26.4808 13.2882 26.855 13.2574 27.2243C12.8433 27.6664 12.4028 28.0831 11.9383 28.4719C9.51592 30.4557 8.17332 33.4674 8.31707 36.5952C8.31707 37.0545 8.68944 37.4269 9.14878 37.4269C9.60812 37.4269 9.98049 37.0545 9.98049 36.5952C9.8374 33.958 10.9646 31.4116 13.0129 29.7444C15.9473 27.4922 17.6072 23.9568 17.4659 20.2604C17.4659 15.0539 13.5485 10.8122 8.73293 10.8122C8.17973 10.8137 7.62816 10.8722 7.08697 10.9869C8.53264 7.91802 11.5799 5.92167 14.9707 5.82196C20.0151 5.82196 24.1195 10.502 24.1195 16.2549C24.1849 20.787 22.2194 25.1106 18.7617 28.0411C18.6469 28.14 18.5196 28.2465 18.3816 28.3621C16.7265 29.7377 13.284 32.6038 12.4806 39.8305C12.432 40.2859 12.7607 40.6949 13.2158 40.7454C13.2462 40.7498 13.2767 40.7526 13.3073 40.7537C13.731 40.7533 14.0866 40.4346 14.1332 40.0135C14.8626 33.4513 17.8426 30.972 19.4445 29.6404C19.5917 29.5173 19.7273 29.4042 19.8487 29.2994C23.6768 26.0566 25.8537 21.2714 25.783 16.2549C25.783 9.58461 20.9324 4.15854 14.9707 4.15854V4.15854ZM8.73293 12.4756C12.6311 12.4756 15.8025 15.9688 15.8025 20.2604C15.8402 21.8342 15.5277 23.3966 14.8876 24.8348C14.3295 20.2105 10.7349 16.6342 6.38751 16.6342C6.19538 16.6342 6.01074 16.6483 5.82527 16.6616C5.82527 16.5019 5.82527 16.363 5.82527 16.2549C5.82557 15.1427 5.98465 14.0361 6.29768 12.9688C7.0689 12.6452 7.89657 12.4776 8.73293 12.4756V12.4756Z" fill="black"/>
<path d="M41.5854 19.1293C41.6492 16.508 42.7609 14.0216 44.6719 12.2261C44.904 12.02 45.002 11.7017 44.926 11.4007C44.8501 11.0997 44.6128 10.8661 44.3106 10.7948C44.0084 10.7235 43.6917 10.8264 43.4892 11.0617C41.268 13.1648 39.983 16.071 39.922 19.1293C39.983 22.1876 41.268 25.0937 43.4892 27.1969C43.6917 27.4322 44.0084 27.5351 44.3106 27.4638C44.6128 27.3925 44.8501 27.1589 44.926 26.8579C45.002 26.5569 44.904 26.2386 44.6719 26.0325C42.7609 24.237 41.6492 21.7506 41.5854 19.1293V19.1293Z" fill="black"/>
<path d="M47.1288 14.3495C46.964 14.2028 46.7477 14.1275 46.5275 14.1403C46.3072 14.1531 46.1011 14.2529 45.9544 14.4177C43.4561 17.062 43.4561 21.1966 45.9544 23.8409C46.152 24.0629 46.453 24.1626 46.744 24.1024C47.0351 24.0423 47.2719 23.8315 47.3653 23.5494C47.4587 23.2673 47.3946 22.9567 47.197 22.7348C45.2597 20.7215 45.2597 17.5371 47.197 15.5239C47.3437 15.3591 47.4189 15.1428 47.4061 14.9225C47.3933 14.7023 47.2936 14.4962 47.1288 14.3495V14.3495Z" fill="black"/>
<path d="M49.6887 16.9095C49.3814 16.5683 48.8557 16.5407 48.5144 16.8479C47.8154 17.3986 47.4074 18.2394 47.4074 19.1293C47.4074 20.0192 47.8154 20.86 48.5144 21.4107C48.7341 21.6165 49.0479 21.6875 49.3348 21.5964C49.6217 21.5052 49.837 21.2662 49.8976 20.9713C49.9583 20.6764 49.8548 20.3717 49.6272 20.1748C49.3047 19.9185 49.1032 19.5399 49.0708 19.1293C49.1032 18.7187 49.3047 18.3401 49.6272 18.0838C49.9684 17.7765 49.9959 17.2508 49.6887 16.9095V16.9095Z" fill="black"/>
<path d="M37.4269 19.1293C37.4269 15.4698 39.0662 11.9334 42.1676 8.91259C42.3804 8.70459 42.466 8.39889 42.3923 8.11064C42.3185 7.82239 42.0966 7.59539 41.8101 7.51514C41.5236 7.43489 41.216 7.51358 41.0032 7.72158C37.5766 11.0617 35.7635 15.0065 35.7635 19.1293C35.7635 23.2521 37.5766 27.1969 41.0032 30.537C41.3321 30.8586 41.8594 30.8526 42.1809 30.5237C42.5025 30.1948 42.4965 29.6676 42.1676 29.346C39.0662 26.3253 37.4269 22.7888 37.4269 19.1293V19.1293Z" fill="black"/>
<path d="M33.2684 19.1293C33.2684 14.5599 35.1996 10.1585 38.855 6.40416C39.063 6.19111 39.1415 5.88328 39.061 5.59662C38.9805 5.30997 38.7532 5.08804 38.4647 5.01443C38.1762 4.94082 37.8703 5.02672 37.6623 5.23977C33.7 9.31514 31.6049 14.1183 31.6049 19.1293C31.6049 24.1403 33.7 28.9435 37.6623 33.0188C37.9838 33.3482 38.5115 33.3545 38.8408 33.033C39.1702 32.7114 39.1765 32.1838 38.855 31.8544C35.1996 28.1001 33.2684 23.6987 33.2684 19.1293V19.1293Z" fill="black"/>
</g>
<defs>
<clipPath id="clip0_24_741">
<rect width="50" height="49.9025" fill="white"/>
</clipPath>
</defs>
</svg>
