<svg width="50" height="50" viewBox="0 0 50 50" fill="none" xmlns="http://www.w3.org/2000/svg">
<path d="M38.3333 10.8333H35.8333V2.5C35.8333 1.0833 34.75 0 33.3333 0C31.9166 0 30.8333 1.0833 30.8333 2.5V10.8333H19.1667V2.5C19.1667 1.0833 18.0834 0 16.6667 0C15.25 0 14.1667 1.0833 14.1667 2.5V10.8333H11.6667C11.1667 10.8333 10.8334 11.1666 10.8334 11.6666V17.9999C10.8334 22.1666 12.4167 26.1666 15.2501 29.2499C17.7501 32.0832 19.1668 35.7499 19.1668 39.4999V41.6666C19.1668 43.9999 21.0001 45.8333 23.3335 45.8333H24.1668V49.1666C24.1668 49.6666 24.5001 49.9999 25.0001 49.9999C25.5001 49.9999 25.8334 49.6666 25.8334 49.1666V45.8333H26.6667C29 45.8333 30.8334 44 30.8334 41.6666V39.5833C30.8334 35.75 32.1667 32.1666 34.7501 29.3333C37.5834 26.25 39.1668 22.1666 39.1668 18V11.6667C39.1667 11.1667 38.8333 10.8333 38.3333 10.8333ZM32.5 2.5C32.5 2 32.8333 1.6667 33.3333 1.6667C33.8333 1.6667 34.1666 2 34.1666 2.5V10.8333H32.5V2.5ZM15.8333 2.5C15.8333 2.0833 16.1666 1.6667 16.6666 1.6667C17.1666 1.6667 17.4999 2 17.4999 2.5V10.8333H15.8332V2.5H15.8333ZM37.5 17.9167C37.5 21.75 36.1667 25.3334 33.5833 28.1667C30.75 31.25 29.1667 35.3333 29.1667 39.5V41.6667C29.1667 43.0834 28.0834 44.1667 26.6667 44.1667H23.3334C21.9167 44.1667 20.8334 43.0834 20.8334 41.6667V39.5834C20.8334 35.4167 19.2501 31.3334 16.4167 28.2501C13.9167 25.4167 12.5 21.75 12.5 18V12.5H15H18.3333H31.6666H35H37.5V17.9167Z" fill="black"/>
<path d="M28.3333 21.6667H23.6666L28.0833 17.25C28.4166 16.9167 28.4166 16.4167 28.0833 16.0833C27.75 15.7499 27.25 15.75 26.9166 16.0833L21.0833 21.9166C20.8333 22.1666 20.75 22.4999 20.9166 22.8333C20.9999 23.1666 21.3333 23.3333 21.6666 23.3333H26.3333L21.9166 27.75C21.5833 28.0833 21.5833 28.5833 21.9166 28.9167C22.0833 29.0834 22.2499 29.1667 22.4999 29.1667C22.7499 29.1667 22.9166 29.0834 23.0832 28.9167L28.9165 23.0834C29.1665 22.8334 29.2498 22.5001 29.0832 22.1667C29 21.8333 28.6667 21.6667 28.3333 21.6667Z" fill="black"/>
</svg>
