<svg width="60" height="60" viewBox="0 0 60 60" fill="none" xmlns="http://www.w3.org/2000/svg">
<path d="M32.7575 3.93611C31.6319 3.2995 30.2998 3.32026 29.1939 3.98685C29.1408 4.01799 29.0901 4.05489 29.0439 4.0941L13.4171 17.314H1.15327C0.515512 17.314 0 17.8295 0 18.4673V40.3794C0 40.6862 0.121093 40.9791 0.337908 41.1948C0.554723 41.4104 0.8465 41.5327 1.15327 41.5327L13.3895 41.5269L29.0082 55.8736C29.0659 55.9266 29.1281 55.9728 29.1939 56.012C29.7613 56.3545 30.3898 56.5263 31.0183 56.5263C31.6146 56.5252 32.2097 56.3718 32.7575 56.0627C33.9096 55.4123 34.5981 54.2244 34.5981 52.8855V7.11452C34.5981 5.77557 33.9096 4.5877 32.7575 3.93611ZM32.2915 52.8855C32.2915 53.3825 32.0413 53.8196 31.6238 54.056C31.445 54.1564 30.9918 54.3501 30.4705 54.086L14.9925 39.8674V34.6131C14.9925 33.9753 14.477 33.4598 13.8392 33.4598C13.2015 33.4598 12.686 33.9753 12.686 34.6131V39.2215L2.30654 39.2262V19.6206H12.686V24.2336C12.686 24.8714 13.2015 25.3869 13.8392 25.3869C14.477 25.3869 14.9925 24.8714 14.9925 24.2336V19.0024L30.4521 5.92434C30.9837 5.64525 31.4439 5.84361 31.6238 5.9451C32.0413 6.18152 32.2915 6.61861 32.2915 7.11452V52.8855Z" fill="black"/>
<path d="M44.7434 8.149C44.1402 7.94487 43.4852 8.26779 43.2799 8.87094C43.0758 9.47295 43.3987 10.1292 44.0018 10.3344C52.1912 13.115 57.6935 20.7865 57.6935 29.4245C57.6935 38.0544 52.2016 45.7271 44.0284 48.5157C43.4264 48.721 43.1034 49.3761 43.3099 49.9804C43.4736 50.459 43.9211 50.7612 44.4009 50.7612C44.5243 50.7612 44.65 50.7415 44.7734 50.6989C53.8796 47.5931 59.9988 39.0439 59.9988 29.4257C60 19.797 53.8692 11.2478 44.7434 8.149Z" fill="black"/>
<path d="M49.6206 29.4234C49.6206 22.536 44.9971 16.3891 38.3774 14.4747C37.7627 14.3005 37.1272 14.65 36.9496 15.2635C36.7732 15.8747 37.1249 16.5148 37.7384 16.6913C43.3768 18.3208 47.3152 23.5567 47.3152 29.4234C47.3152 35.29 43.3768 40.5259 37.7384 42.1555C37.1261 42.3319 36.7732 42.972 36.9496 43.5832C37.0961 44.0883 37.5562 44.417 38.0579 44.417C38.164 44.417 38.2712 44.402 38.3774 44.372C44.9983 42.4576 49.6206 36.3107 49.6206 29.4234Z" fill="black"/>
</svg>
