<svg width="24" height="24" viewBox="0 0 24 24" fill="none" xmlns="http://www.w3.org/2000/svg">
<g clip-path="url(#clip0_24_1248)">
<path d="M18.2054 17.5212L13.1636 12L18.2054 6.47944C18.3637 6.30559 18.4445 6.07393 18.4276 5.83904C18.4107 5.60391 18.2984 5.38594 18.1163 5.23646L11.9874 0.195941C11.7305 -0.015418 11.3753 -0.0598087 11.0746 0.0825508C10.7739 0.224301 10.5823 0.526739 10.5823 0.85927V9.17363L7.06391 5.32046C6.74426 4.97021 6.20042 4.94555 5.85017 5.26548C5.49992 5.5854 5.47526 6.12868 5.79518 6.47921L10.5823 11.7217V12.2784L5.79523 17.5212C5.47503 17.8712 5.49968 18.4148 5.85022 18.7349C6.20075 19.0551 6.74408 19.0305 7.06395 18.6797L10.5821 14.827V23.1408C10.5821 23.473 10.774 23.7758 11.0744 23.9178C11.1913 23.9728 11.3167 24.0001 11.4413 24.0001C11.6369 24.0001 11.8305 23.9336 11.9874 23.8047L18.1163 18.7641C18.2984 18.6144 18.4107 18.3964 18.4276 18.1615C18.4445 17.9267 18.3643 17.695 18.2054 17.5212ZM12.3007 2.6784L16.326 5.98857L12.3007 10.3968V2.6784ZM12.3007 21.3217V13.6036L16.326 18.0115L12.3007 21.3217Z" fill="black"/>
</g>
<defs>
<clipPath id="clip0_24_1248">
<rect width="24" height="24" fill="white"/>
</clipPath>
</defs>
</svg>
