<svg width="24" height="24" viewBox="0 0 24 24" fill="none" xmlns="http://www.w3.org/2000/svg">
<g clip-path="url(#clip0_24_1326)">
<path d="M22.08 7.22742V5.1261C22.08 4.73627 21.7639 4.42022 21.3741 4.42022H18.096C17.7062 4.42022 17.3901 4.73627 17.3901 5.1261V7.22742C17.0301 7.25961 16.7478 7.56173 16.7478 7.9301V11.7258C16.7478 12.5907 17.4515 13.2943 18.3164 13.2943H19.0292V20.8141C19.0292 21.7924 18.2331 22.5882 17.2546 22.5882H9.53835C8.56009 22.5882 7.76423 21.7924 7.76423 20.8141V19.2941H9.26541C9.65524 19.2941 9.97129 18.9781 9.97129 18.5882V16.298H10.7211C11.8887 16.298 12.8387 15.348 12.8387 14.1804V7.7782C12.8387 6.82606 12.207 6.01886 11.3407 5.75326V3.33269C11.3407 2.94286 11.0247 2.62681 10.6348 2.62681H9.64705V0.705867C9.64705 0.316032 9.33101 -1.52588e-05 8.94117 -1.52588e-05C8.55133 -1.52588e-05 8.23529 0.316032 8.23529 0.705867V2.62681H5.88141V0.705867C5.88141 0.316032 5.56536 -1.52588e-05 5.17552 -1.52588e-05C4.78569 -1.52588e-05 4.46964 0.316032 4.46964 0.705867V2.62681H3.48188C3.09204 2.62681 2.77599 2.94286 2.77599 3.33269V5.75326C1.90969 6.01886 1.27797 6.82601 1.27797 7.7782V14.1804C1.27797 15.348 2.22795 16.298 3.39562 16.298H4.1454V18.5882C4.1454 18.9781 4.46145 19.2941 4.85129 19.2941H6.35246V20.8141C6.35246 22.5708 7.78164 24 9.53835 24H17.2546C19.0115 24 20.4409 22.5708 20.4409 20.8141V13.2943H21.1535C22.0184 13.2943 22.7221 12.5907 22.7221 11.7258V7.9301C22.7221 7.56177 22.4399 7.25975 22.08 7.22742ZM9.92894 4.03857V5.66055H4.18776V4.03857H9.92894ZM2.68969 14.1804V7.7782C2.68969 7.38897 3.00635 7.07231 3.39557 7.07231H10.7211C11.1103 7.07231 11.427 7.38897 11.427 7.7782V14.1804C11.427 14.5696 11.1103 14.8862 10.7211 14.8862C10.4253 14.8862 3.73246 14.8862 3.39557 14.8862C3.00635 14.8862 2.68969 14.5696 2.68969 14.1804ZM5.55717 16.298H8.55952V17.8823H5.55717V16.298ZM20.6682 5.83198V7.22422H18.8019V5.83198H20.6682ZM21.3103 11.7258C21.3103 11.8122 21.2399 11.8825 21.1535 11.8825C21.0671 11.8825 19.1153 11.8825 18.3164 11.8825C18.2299 11.8825 18.1596 11.8122 18.1596 11.7258V8.63598H21.3103V11.7258Z" fill="black"/>
<path d="M6.16377 11.6852H6.87986L6.56777 12.409C6.41341 12.767 6.5785 13.1823 6.93643 13.3367C7.29497 13.4911 7.70994 13.3256 7.8641 12.968L8.60109 11.2588C8.80203 10.7928 8.45925 10.2735 7.9529 10.2735H7.2368L7.5489 9.54969C7.70325 9.19172 7.53817 8.77633 7.18024 8.62198C6.82217 8.46767 6.40687 8.63275 6.25257 8.99068L5.51558 10.6998C5.31464 11.1657 5.65741 11.6852 6.16377 11.6852Z" fill="black"/>
</g>
<defs>
<clipPath id="clip0_24_1326">
<rect width="24" height="24" fill="white"/>
</clipPath>
</defs>
</svg>
