<svg xmlns="http://www.w3.org/2000/svg">
  <symbol id="phone" viewBox="0 0 24 24" preserveAspectRatio="xMidYMid">
    <path fill="currentColor" d="M23.9481 18.5956C23.8802 18.3911 23.4483 18.0898 22.6528 17.6924C22.4372 17.5671 22.1301 17.3969 21.7328 17.181C21.335 16.965 20.974 16.7661 20.6504 16.5842C20.3261 16.4024 20.0222 16.2263 19.7384 16.0561C19.693 16.022 19.551 15.9227 19.3123 15.7576C19.0735 15.5929 18.872 15.4707 18.707 15.391C18.5422 15.3118 18.3802 15.2719 18.2211 15.2719C17.9939 15.2719 17.7101 15.4339 17.3693 15.7576C17.0285 16.0816 16.7159 16.4336 16.432 16.8147C16.148 17.1955 15.8468 17.5475 15.5289 17.8714C15.2106 18.1954 14.949 18.3572 14.7447 18.3572C14.6422 18.3572 14.5143 18.3286 14.361 18.2722C14.2078 18.2154 14.0913 18.1668 14.0113 18.1276C13.932 18.0875 13.7959 18.0082 13.6026 17.8885C13.409 17.7692 13.3013 17.7038 13.2786 17.6924C11.7218 16.8286 10.3867 15.8399 9.273 14.7266C8.15962 13.6127 7.17084 12.2777 6.30725 10.7208C6.29591 10.6981 6.23042 10.5901 6.11119 10.397C5.99179 10.2038 5.91221 10.0676 5.87245 9.98781C5.83268 9.90835 5.78439 9.79181 5.72767 9.63844C5.67095 9.48506 5.64248 9.3573 5.64248 9.25491C5.64248 9.05049 5.80445 8.789 6.12833 8.47079C6.45215 8.15276 6.80451 7.8515 7.18505 7.56762C7.56589 7.28374 7.91789 6.97114 8.24183 6.63036C8.56565 6.2894 8.72756 6.00546 8.72756 5.77824C8.72756 5.61925 8.6878 5.45716 8.60834 5.29244C8.52882 5.12737 8.40667 4.92594 8.24183 4.68719C8.07693 4.44856 7.97753 4.30665 7.94338 4.26098C7.77311 3.97709 7.59717 3.67315 7.41514 3.34927C7.23311 3.02545 7.03442 2.66449 6.81842 2.26682C6.6026 1.86932 6.43227 1.5624 6.30713 1.34651C5.90964 0.551227 5.60856 0.119224 5.40397 0.0512838C5.32438 0.0171941 5.20498 0 5.04605 0C4.73907 0 4.33859 0.0567167 3.84432 0.170508C3.34987 0.284121 2.96079 0.403286 2.67667 0.52848C2.10849 0.766989 1.50628 1.46013 0.869857 2.60766C0.290332 3.6756 0.000598907 4.73262 0.000598907 5.77794C0.000598907 6.08451 0.0204796 6.38278 0.060241 6.67281C0.100002 6.96254 0.171047 7.28929 0.273436 7.65299C0.375645 8.01658 0.458093 8.28667 0.520422 8.46255C0.58281 8.63855 0.699289 8.95384 0.869797 9.40852C1.04007 9.86309 1.14245 10.1414 1.17654 10.2436C1.57422 11.3573 2.0458 12.3515 2.59118 13.2266C3.4885 14.681 4.71304 16.1841 6.26409 17.7353C7.8152 19.2864 9.31802 20.5108 10.7726 21.4085C11.6475 21.9538 12.6421 22.4254 13.7556 22.8233C13.8579 22.8573 14.1362 22.9594 14.5906 23.1303C15.0451 23.3007 15.3605 23.4171 15.5365 23.4796C15.7126 23.5422 15.9828 23.6247 16.346 23.7271C16.7101 23.8295 17.0366 23.9005 17.3263 23.9406C17.6162 23.9798 17.9145 24.0001 18.2212 24.0001C19.2664 24.0001 20.3235 23.7101 21.3916 23.1307C22.539 22.4945 23.232 21.8922 23.4706 21.3236C23.5961 21.0397 23.715 20.6506 23.8286 20.1561C23.9426 19.6619 23.9992 19.2615 23.9992 18.9545C23.9995 18.795 23.9824 18.6759 23.9481 18.5956Z"/>
  </symbol>

  <symbol id="feature1" viewBox="0 0 50 50" preserveAspectRatio="xMidYMid">
    <g fill="currentColor">
      <path d="M14.9708 0C6.71605 0 0 7.27579 0 16.2591C0.0317662 18.342 0.602868 20.3811 1.6576 22.1775C2.15599 23.0277 2.58274 23.918 2.93344 24.839C3.16602 25.5159 2.94278 26.2658 2.37786 26.7053C1.39499 27.4911 0.825441 28.6832 0.831709 29.9415C0.827764 31.3243 1.51136 32.6185 2.65565 33.3948C3.06703 33.6743 3.31726 34.1359 3.32684 34.6332V41.5854C3.32684 46.1715 6.68444 49.9025 10.8122 49.9025C14.94 49.9025 18.2976 46.1715 18.2976 41.5854C18.285 38.1601 19.7745 34.9014 22.373 32.6695C27.2442 28.6051 30.0244 22.5619 29.9415 16.2183C29.9415 7.27579 23.2255 0 14.9708 0ZM21.2917 31.4062C18.3233 33.9534 16.621 37.674 16.6342 41.5854C16.6342 45.2541 14.0218 48.2391 10.8122 48.2391C7.60265 48.2391 4.99025 45.2541 4.99025 41.5854V34.6332C4.97678 33.6031 4.47131 32.6417 3.63041 32.0466C2.91983 31.5825 2.49254 30.7902 2.49513 29.9415C2.48942 29.1765 2.83983 28.4523 3.44327 27.982C4.55062 27.0949 4.97343 25.603 4.49622 24.2668C4.11317 23.2593 3.64662 22.2856 3.10144 21.3558C2.18489 19.7969 1.68934 18.0265 1.66342 16.2183C1.66342 8.19316 7.63342 1.66342 14.9708 1.66342C22.3081 1.66342 28.2781 8.19316 28.2781 16.2183C28.3542 22.0745 25.788 27.6533 21.2917 31.4062V31.4062Z"/>
      <path d="M14.9707 4.15854C10.3356 4.15854 6.38335 7.44545 4.84885 12.0398C4.83803 12.0673 4.83055 12.0939 4.82223 12.123C4.38372 13.4571 4.15915 14.8522 4.15686 16.2566C4.15686 17.2546 4.15686 20.307 6.06397 22.2141C6.39032 22.5293 6.90906 22.5248 7.22988 22.204C7.5507 21.8832 7.5552 21.3644 7.24001 21.0381C6.55671 20.2785 6.11793 19.3308 5.9808 18.3184C6.11471 18.3101 6.24695 18.2993 6.38584 18.2993C10.2034 18.2976 13.3073 21.7908 13.3073 26.0824C13.3073 26.4808 13.2882 26.855 13.2574 27.2243C12.8433 27.6664 12.4028 28.0831 11.9383 28.4719C9.51592 30.4557 8.17332 33.4674 8.31707 36.5952C8.31707 37.0545 8.68944 37.4269 9.14878 37.4269C9.60812 37.4269 9.98049 37.0545 9.98049 36.5952C9.8374 33.958 10.9646 31.4116 13.0129 29.7444C15.9473 27.4922 17.6072 23.9568 17.4659 20.2604C17.4659 15.0539 13.5485 10.8122 8.73293 10.8122C8.17973 10.8137 7.62816 10.8722 7.08697 10.9869C8.53264 7.91802 11.5799 5.92167 14.9707 5.82196C20.0151 5.82196 24.1195 10.502 24.1195 16.2549C24.1849 20.787 22.2194 25.1106 18.7617 28.0411C18.6469 28.14 18.5196 28.2465 18.3816 28.3621C16.7265 29.7377 13.284 32.6038 12.4806 39.8305C12.432 40.2859 12.7607 40.6949 13.2158 40.7454C13.2462 40.7498 13.2767 40.7526 13.3073 40.7537C13.731 40.7533 14.0866 40.4346 14.1332 40.0135C14.8626 33.4513 17.8426 30.972 19.4445 29.6404C19.5917 29.5173 19.7273 29.4042 19.8487 29.2994C23.6768 26.0566 25.8537 21.2714 25.783 16.2549C25.783 9.58461 20.9324 4.15854 14.9707 4.15854V4.15854ZM8.73293 12.4756C12.6311 12.4756 15.8025 15.9688 15.8025 20.2604C15.8402 21.8342 15.5277 23.3966 14.8876 24.8348C14.3295 20.2105 10.7349 16.6342 6.38751 16.6342C6.19538 16.6342 6.01074 16.6483 5.82527 16.6616C5.82527 16.5019 5.82527 16.363 5.82527 16.2549C5.82557 15.1427 5.98465 14.0361 6.29768 12.9688C7.0689 12.6452 7.89657 12.4776 8.73293 12.4756V12.4756Z"/>
      <path d="M41.5854 19.1293C41.6492 16.508 42.7609 14.0216 44.6719 12.2261C44.904 12.02 45.002 11.7017 44.926 11.4007C44.8501 11.0997 44.6128 10.8661 44.3106 10.7948C44.0084 10.7235 43.6917 10.8264 43.4892 11.0617C41.268 13.1648 39.983 16.071 39.922 19.1293C39.983 22.1876 41.268 25.0937 43.4892 27.1969C43.6917 27.4322 44.0084 27.5351 44.3106 27.4638C44.6128 27.3925 44.8501 27.1589 44.926 26.8579C45.002 26.5569 44.904 26.2386 44.6719 26.0325C42.7609 24.237 41.6492 21.7506 41.5854 19.1293V19.1293Z"/>
      <path d="M47.1288 14.3495C46.964 14.2028 46.7477 14.1275 46.5275 14.1403C46.3072 14.1531 46.1011 14.2529 45.9544 14.4177C43.4561 17.062 43.4561 21.1966 45.9544 23.8409C46.152 24.0629 46.453 24.1626 46.744 24.1024C47.0351 24.0423 47.2719 23.8315 47.3653 23.5494C47.4587 23.2673 47.3946 22.9567 47.197 22.7348C45.2597 20.7215 45.2597 17.5371 47.197 15.5239C47.3437 15.3591 47.4189 15.1428 47.4061 14.9225C47.3933 14.7023 47.2936 14.4962 47.1288 14.3495V14.3495Z"/>
      <path d="M49.6887 16.9095C49.3814 16.5683 48.8557 16.5407 48.5144 16.8479C47.8154 17.3986 47.4074 18.2394 47.4074 19.1293C47.4074 20.0192 47.8154 20.86 48.5144 21.4107C48.7341 21.6165 49.0479 21.6875 49.3348 21.5964C49.6217 21.5052 49.837 21.2662 49.8976 20.9713C49.9583 20.6764 49.8548 20.3717 49.6272 20.1748C49.3047 19.9185 49.1032 19.5399 49.0708 19.1293C49.1032 18.7187 49.3047 18.3401 49.6272 18.0838C49.9684 17.7765 49.9959 17.2508 49.6887 16.9095V16.9095Z"/>
      <path d="M37.4269 19.1293C37.4269 15.4698 39.0662 11.9334 42.1676 8.91259C42.3804 8.70459 42.466 8.39889 42.3923 8.11064C42.3185 7.82239 42.0966 7.59539 41.8101 7.51514C41.5236 7.43489 41.216 7.51358 41.0032 7.72158C37.5766 11.0617 35.7635 15.0065 35.7635 19.1293C35.7635 23.2521 37.5766 27.1969 41.0032 30.537C41.3321 30.8586 41.8594 30.8526 42.1809 30.5237C42.5025 30.1948 42.4965 29.6676 42.1676 29.346C39.0662 26.3253 37.4269 22.7888 37.4269 19.1293V19.1293Z"/>
      <path d="M33.2684 19.1293C33.2684 14.5599 35.1996 10.1585 38.855 6.40416C39.063 6.19111 39.1415 5.88328 39.061 5.59662C38.9805 5.30997 38.7532 5.08804 38.4647 5.01443C38.1762 4.94082 37.8703 5.02672 37.6623 5.23977C33.7 9.31514 31.6049 14.1183 31.6049 19.1293C31.6049 24.1403 33.7 28.9435 37.6623 33.0188C37.9838 33.3482 38.5115 33.3545 38.8408 33.033C39.1702 32.7114 39.1765 32.1838 38.855 31.8544C35.1996 28.1001 33.2684 23.6987 33.2684 19.1293V19.1293Z"/>
    </g>
  </symbol>

  <symbol id="feature2" viewBox="0 0 50 50" preserveAspectRatio="xMidYMid">
    <g fill="currentColor">
      <path d="M33.6283 4.16663H16.3717C14.4666 4.16663 12.9167 5.71643 12.9167 7.62158V46.5449C12.9167 48.4501 14.4666 49.9999 16.3717 49.9999H33.6284C35.5336 49.9999 37.0834 48.4501 37.0834 46.5449V7.6217C37.0834 5.71643 35.5336 4.16663 33.6283 4.16663ZM35.4166 46.545C35.4166 47.5309 34.6141 48.3334 33.6283 48.3334H16.3717C15.3859 48.3334 14.5834 47.5309 14.5834 46.545V7.6217C14.5834 6.63586 15.3859 5.83337 16.3717 5.83337H33.6284C34.6143 5.83337 35.4168 6.63586 35.4168 7.6217V46.545H35.4166Z"/>
      <path d="M29.5834 0H20.4167C19.9565 0 19.5834 0.373169 19.5834 0.833374V5C19.5834 5.4602 19.9565 5.83337 20.4167 5.83337H29.5834C30.0436 5.83337 30.4167 5.4602 30.4167 5V0.833374C30.4166 0.373169 30.0436 0 29.5834 0ZM28.75 4.16663H21.25V1.66663H28.75V4.16663Z"/>
      <path d="M31.1194 22.8856C30.9664 22.645 30.7014 22.4998 30.4166 22.4998H25.4166V14.9998C25.4166 14.6091 25.1451 14.271 24.7639 14.1864C24.3792 14.1022 23.9933 14.2935 23.8281 14.6475L17.9948 27.1475C17.8744 27.4054 17.8943 27.7075 18.0472 27.9475C18.2002 28.1881 18.4652 28.3334 18.75 28.3334H23.75V35.8334C23.75 36.224 24.0215 36.5621 24.4027 36.6467C24.4634 36.6603 24.5239 36.6667 24.5837 36.6667C24.9019 36.6667 25.1993 36.4836 25.3385 36.1857L31.1719 23.6857C31.2922 23.4277 31.2724 23.1256 31.1194 22.8856ZM23.75 26.6666H20.0586L23.75 18.756V26.6666ZM25.4166 32.0773V24.1666H29.108L25.4166 32.0773Z"/>
    </g>
  </symbol>

  <symbol id="feature3" viewBox="0 0 50 50" preserveAspectRatio="xMidYMid">
    <g fill="currentColor">
      <path d="M38.3333 10.8333H35.8333V2.5C35.8333 1.0833 34.75 0 33.3333 0C31.9166 0 30.8333 1.0833 30.8333 2.5V10.8333H19.1667V2.5C19.1667 1.0833 18.0834 0 16.6667 0C15.25 0 14.1667 1.0833 14.1667 2.5V10.8333H11.6667C11.1667 10.8333 10.8334 11.1666 10.8334 11.6666V17.9999C10.8334 22.1666 12.4167 26.1666 15.2501 29.2499C17.7501 32.0832 19.1668 35.7499 19.1668 39.4999V41.6666C19.1668 43.9999 21.0001 45.8333 23.3335 45.8333H24.1668V49.1666C24.1668 49.6666 24.5001 49.9999 25.0001 49.9999C25.5001 49.9999 25.8334 49.6666 25.8334 49.1666V45.8333H26.6667C29 45.8333 30.8334 44 30.8334 41.6666V39.5833C30.8334 35.75 32.1667 32.1666 34.7501 29.3333C37.5834 26.25 39.1668 22.1666 39.1668 18V11.6667C39.1667 11.1667 38.8333 10.8333 38.3333 10.8333ZM32.5 2.5C32.5 2 32.8333 1.6667 33.3333 1.6667C33.8333 1.6667 34.1666 2 34.1666 2.5V10.8333H32.5V2.5ZM15.8333 2.5C15.8333 2.0833 16.1666 1.6667 16.6666 1.6667C17.1666 1.6667 17.4999 2 17.4999 2.5V10.8333H15.8332V2.5H15.8333ZM37.5 17.9167C37.5 21.75 36.1667 25.3334 33.5833 28.1667C30.75 31.25 29.1667 35.3333 29.1667 39.5V41.6667C29.1667 43.0834 28.0834 44.1667 26.6667 44.1667H23.3334C21.9167 44.1667 20.8334 43.0834 20.8334 41.6667V39.5834C20.8334 35.4167 19.2501 31.3334 16.4167 28.2501C13.9167 25.4167 12.5 21.75 12.5 18V12.5H15H18.3333H31.6666H35H37.5V17.9167Z"/>
      <path d="M28.3333 21.6667H23.6666L28.0833 17.25C28.4166 16.9167 28.4166 16.4167 28.0833 16.0833C27.75 15.7499 27.25 15.75 26.9166 16.0833L21.0833 21.9166C20.8333 22.1666 20.75 22.4999 20.9166 22.8333C20.9999 23.1666 21.3333 23.3333 21.6666 23.3333H26.3333L21.9166 27.75C21.5833 28.0833 21.5833 28.5833 21.9166 28.9167C22.0833 29.0834 22.2499 29.1667 22.4999 29.1667C22.7499 29.1667 22.9166 29.0834 23.0832 28.9167L28.9165 23.0834C29.1665 22.8334 29.2498 22.5001 29.0832 22.1667C29 21.8333 28.6667 21.6667 28.3333 21.6667Z"/>
    </g>
  </symbol>

  <symbol id="reason1" viewBox="0 0 60 60" preserveAspectRatio="xMidYMid">
    <path fill="currentColor" d="M42.536 4H36V0H24V4H17.464C15.554 4 14 5.554 14 7.464V56.536C14 58.446 15.554 60 17.464 60H42.536C44.446 60 46 58.446 46 56.536V7.464C46 5.554 44.446 4 42.536 4ZM16 19H44V31H16V19ZM16 33H44V45H16V33ZM26 2H34V4H26V2ZM17.464 6H24H36H42.536C43.344 6 44 6.656 44 7.464V17H16V7.464C16 6.656 16.656 6 17.464 6ZM42.536 58H17.464C16.656 58 16 57.344 16 56.536V47H44V56.536C44 57.344 43.344 58 42.536 58Z"/>
  </symbol>

  <symbol id="reason2" viewBox="0 0 60 60" preserveAspectRatio="xMidYMid">
    <g fill="currentColor">
      <path d="M32.7575 3.93611C31.6319 3.2995 30.2998 3.32026 29.1939 3.98685C29.1408 4.01799 29.0901 4.05489 29.0439 4.0941L13.4171 17.314H1.15327C0.515512 17.314 0 17.8295 0 18.4673V40.3794C0 40.6862 0.121093 40.9791 0.337908 41.1948C0.554723 41.4104 0.8465 41.5327 1.15327 41.5327L13.3895 41.5269L29.0082 55.8736C29.0659 55.9266 29.1281 55.9728 29.1939 56.012C29.7613 56.3545 30.3898 56.5263 31.0183 56.5263C31.6146 56.5252 32.2097 56.3718 32.7575 56.0627C33.9096 55.4123 34.5981 54.2244 34.5981 52.8855V7.11452C34.5981 5.77557 33.9096 4.5877 32.7575 3.93611ZM32.2915 52.8855C32.2915 53.3825 32.0413 53.8196 31.6238 54.056C31.445 54.1564 30.9918 54.3501 30.4705 54.086L14.9925 39.8674V34.6131C14.9925 33.9753 14.477 33.4598 13.8392 33.4598C13.2015 33.4598 12.686 33.9753 12.686 34.6131V39.2215L2.30654 39.2262V19.6206H12.686V24.2336C12.686 24.8714 13.2015 25.3869 13.8392 25.3869C14.477 25.3869 14.9925 24.8714 14.9925 24.2336V19.0024L30.4521 5.92434C30.9837 5.64525 31.4439 5.84361 31.6238 5.9451C32.0413 6.18152 32.2915 6.61861 32.2915 7.11452V52.8855Z"/>
      <path d="M44.7434 8.149C44.1402 7.94487 43.4852 8.26779 43.2799 8.87094C43.0758 9.47295 43.3987 10.1292 44.0018 10.3344C52.1912 13.115 57.6935 20.7865 57.6935 29.4245C57.6935 38.0544 52.2016 45.7271 44.0284 48.5157C43.4264 48.721 43.1034 49.3761 43.3099 49.9804C43.4736 50.459 43.9211 50.7612 44.4009 50.7612C44.5243 50.7612 44.65 50.7415 44.7734 50.6989C53.8796 47.5931 59.9988 39.0439 59.9988 29.4257C60 19.797 53.8692 11.2478 44.7434 8.149Z"/>
      <path d="M49.6206 29.4234C49.6206 22.536 44.9971 16.3891 38.3774 14.4747C37.7627 14.3005 37.1272 14.65 36.9496 15.2635C36.7732 15.8747 37.1249 16.5148 37.7384 16.6913C43.3768 18.3208 47.3152 23.5567 47.3152 29.4234C47.3152 35.29 43.3768 40.5259 37.7384 42.1555C37.1261 42.3319 36.7732 42.972 36.9496 43.5832C37.0961 44.0883 37.5562 44.417 38.0579 44.417C38.164 44.417 38.2712 44.402 38.3774 44.372C44.9983 42.4576 49.6206 36.3107 49.6206 29.4234Z"/>
    </g>
  </symbol>

  <symbol id="reason3" viewBox="0 0 60 60" preserveAspectRatio="xMidYMid">
    <g fill="currentColor">
      <path d="M31.634 37.989C32.675 37.908 33.624 37.377 34.24 36.53L43.603 23.586C43.89 23.189 43.847 22.641 43.499 22.293C43.151 21.946 42.603 21.903 42.206 22.189L29.26 31.555C28.416 32.169 27.885 33.118 27.804 34.159C27.723 35.2 28.1 36.219 28.837 36.956C29.508 37.628 30.413 38 31.354 38C31.447 38 31.54 37.996 31.634 37.989ZM29.798 34.315C29.833 33.858 30.067 33.441 30.435 33.173L38.332 27.46L32.621 35.355C32.351 35.726 31.934 35.959 31.477 35.995C31.022 36.025 30.575 35.867 30.25 35.542C29.928 35.219 29.762 34.771 29.798 34.315Z"/>
      <path d="M54.034 19.564C54.024 19.543 54.024 19.521 54.013 19.5C54.001 19.48 53.982 19.469 53.969 19.45C52.958 17.716 51.762 16.103 50.404 14.641L52.552 12.494L53.966 13.908L58.208 9.665L53.966 5.423L49.723 9.665L51.138 11.08L48.99 13.227C47.528 11.869 45.916 10.672 44.181 9.661C44.162 9.648 44.151 9.629 44.131 9.617C44.11 9.605 44.088 9.606 44.067 9.595C40.974 7.813 37.499 6.626 33.794 6.191V5H35.294C36.673 5 37.794 3.879 37.794 2.5C37.794 1.121 36.672 0 35.293 0H26.293C24.914 0 23.793 1.121 23.793 2.5C23.793 3.879 24.914 5 26.293 5H27.793V6.156C26.713 6.271 25.635 6.447 24.569 6.691C24.031 6.814 23.694 7.351 23.818 7.889C23.941 8.427 24.478 8.765 25.016 8.64C25.936 8.429 26.865 8.27 27.796 8.163L28.869 8.08C29.197 8.055 29.499 8.037 29.793 8.023V10C29.793 10.553 30.24 11 30.793 11C31.346 11 31.793 10.553 31.793 10V8.03C35.554 8.203 39.098 9.213 42.249 10.875L41.263 12.582C40.987 13.061 41.151 13.672 41.629 13.948C41.786 14.039 41.958 14.082 42.128 14.082C42.474 14.082 42.81 13.903 42.995 13.582L43.978 11.879C47.107 13.864 49.765 16.522 51.75 19.651L50.047 20.634C49.57 20.91 49.406 21.521 49.683 22C49.869 22.321 50.204 22.5 50.55 22.5C50.72 22.5 50.892 22.457 51.049 22.366L52.756 21.38C54.441 24.576 55.454 28.178 55.605 31.999H53.63C53.077 31.999 52.63 32.446 52.63 32.999C52.63 33.552 53.077 33.999 53.63 33.999H55.605C55.454 37.82 54.441 41.422 52.756 44.618L51.049 43.632C50.571 43.356 49.959 43.518 49.683 43.998C49.407 44.477 49.571 45.088 50.049 45.364L51.752 46.347C49.767 49.476 47.109 52.134 43.98 54.119L42.997 52.416C42.72 51.936 42.107 51.773 41.631 52.05C41.152 52.326 40.988 52.938 41.265 53.416L42.251 55.123C39.1 56.785 35.556 57.795 31.795 57.968V56C31.795 55.447 31.348 55 30.795 55C30.242 55 29.795 55.447 29.795 56V57.976C28.198 57.921 26.596 57.721 25.019 57.359C24.481 57.23 23.944 57.572 23.821 58.11C23.697 58.648 24.034 59.185 24.572 59.308C26.568 59.768 28.607 60 30.63 60C30.679 60 30.726 59.997 30.775 59.996C30.782 59.996 30.787 60 30.793 60C30.801 60 30.808 59.995 30.816 59.995C35.623 59.962 40.133 58.664 44.035 56.422C44.066 56.408 44.099 56.401 44.129 56.383C44.149 56.371 44.16 56.352 44.179 56.339C48.218 53.985 51.593 50.614 53.952 46.578C53.971 46.551 53.995 46.53 54.012 46.5C54.024 46.479 54.023 46.457 54.033 46.436C56.317 42.476 57.63 37.89 57.63 33C57.63 28.11 56.317 23.524 54.034 19.564ZM53.965 8.251L55.379 9.665L53.965 11.08L52.55 9.665L53.965 8.251ZM29.793 6.021V3H26.293C26.018 3 25.793 2.775 25.793 2.5C25.793 2.225 26.018 2 26.293 2H35.293C35.568 2 35.793 2.225 35.793 2.5C35.793 2.775 35.568 3 35.293 3H31.793V6.021C31.445 6.007 31.113 6 30.793 6C30.765 6 30.733 6.002 30.705 6.002C30.68 6.002 30.655 6 30.63 6C30.466 6 30.302 6.011 30.138 6.014C30.022 6.017 29.913 6.016 29.793 6.021Z"/>
      <path d="M21.793 14H16.793C16.24 14 15.793 14.447 15.793 15C15.793 15.553 16.24 16 16.793 16H21.793C22.346 16 22.793 15.553 22.793 15C22.793 14.447 22.346 14 21.793 14Z"/>
      <path d="M21.793 21H11.793C11.24 21 10.793 21.447 10.793 22C10.793 22.553 11.24 23 11.793 23H21.793C22.346 23 22.793 22.553 22.793 22C22.793 21.447 22.346 21 21.793 21Z"/>
      <path d="M21.793 28H6.793C6.24 28 5.793 28.447 5.793 29C5.793 29.553 6.24 30 6.793 30H21.793C22.346 30 22.793 29.553 22.793 29C22.793 28.447 22.346 28 21.793 28Z"/>
      <path d="M21.793 35H2.793C2.24 35 1.793 35.447 1.793 36C1.793 36.553 2.24 37 2.793 37H21.793C22.346 37 22.793 36.553 22.793 36C22.793 35.447 22.346 35 21.793 35Z"/>
      <path d="M21.793 42H8.793C8.24 42 7.793 42.447 7.793 43C7.793 43.553 8.24 44 8.793 44H21.793C22.346 44 22.793 43.553 22.793 43C22.793 42.447 22.346 42 21.793 42Z"/>
      <path d="M21.793 49H14.793C14.24 49 13.793 49.447 13.793 50C13.793 50.553 14.24 51 14.793 51H21.793C22.346 51 22.793 50.553 22.793 50C22.793 49.447 22.346 49 21.793 49Z"/>
    </g>
  </symbol>

  <symbol id="logo" viewBox="0 0 40 40" preserveAspectRatio="xMidYMid">
    <path fill="currentColor" d="M20 26C23.3 26 26 23.3 26 20C26 16.7 23.3 14 20 14C16.7 14 14 16.7 14 20C14 23.3 16.7 26 20 26ZM20 0C18 0 15.9 0.3 14 0.9V12C18.4 8.7 24.7 9.6 28 14C31.3 18.4 30.4 24.7 26 28C21.6 31.3 15.3 30.4 12 26C10.7 24.3 9.99999 22.2 9.99999 20V2.7C0.399989 8.2 -2.80001 20.4 2.69999 30C8.19999 39.6 20.4 42.8 30 37.3C39.6 31.8 42.8 19.6 37.3 10C33.8 3.8 27.2 0 20 0Z"/>
  </symbol>

  <symbol id="vk" viewBox="0 0 50 50" preserveAspectRatio="xMidYMid">
    <path fill="currentColor" d="M25 0C11.1963 0 0 11.1963 0 25C0 38.8037 11.1963 50 25 50C38.8037 50 50 38.8037 50 25C50 11.1963 38.8037 0 25 0ZM37.6789 27.7096C38.8548 28.8344 40.0818 29.908 41.1043 31.1861C41.5644 31.7485 42.0245 32.3108 42.3313 32.9755C42.7914 33.8957 42.3824 34.9182 41.5644 34.9693H36.4519C35.1227 35.0716 34.1002 34.5603 33.18 33.6401C32.4642 32.9243 31.7996 32.1575 31.135 31.3906C30.8793 31.0838 30.5726 30.7771 30.2147 30.5726C29.499 30.1125 28.8855 30.2658 28.5276 30.9816C28.1186 31.7485 28.0164 32.5665 27.9652 33.3845C27.9141 34.6115 27.5562 34.9182 26.3292 34.9693C23.7219 35.0716 21.2679 34.7137 19.0184 33.3845C17.0245 32.2086 15.4397 30.6237 14.1104 28.7832C11.4519 25.2045 9.45808 21.2679 7.61759 17.229C7.20859 16.3088 7.51534 15.8487 8.53783 15.7975C10.2249 15.7464 11.8609 15.7464 13.5481 15.7975C14.2127 15.7975 14.6728 16.2065 14.9284 16.82C15.8487 19.0184 16.9223 21.1656 18.3027 23.1084C18.6605 23.6196 19.0695 24.1309 19.5808 24.5399C20.1943 24.9489 20.6033 24.7955 20.91 24.1309C21.0634 23.7219 21.1656 23.2618 21.2168 22.8016C21.3701 21.2679 21.3701 19.7342 21.1145 18.2004C20.9611 17.1779 20.4499 16.5644 19.4785 16.3599C18.9673 16.2577 19.0695 16.1043 19.274 15.7975C19.683 15.3374 20.092 15.0307 20.8589 15.0307H26.636C27.5562 15.2352 27.7607 15.593 27.863 16.5133V22.955C27.863 23.3129 28.0164 24.3865 28.681 24.591C29.1922 24.7444 29.5501 24.3354 29.8569 24.0286C31.2372 22.546 32.2086 20.8078 33.1288 19.0184C33.5378 18.2004 33.8446 17.3824 34.2025 16.5644C34.4581 15.9509 34.816 15.6442 35.5317 15.6442H41.1043C41.2577 15.6442 41.411 15.6442 41.6155 15.6953C42.5358 15.8487 42.7914 16.2577 42.5358 17.1779C42.0757 18.6094 41.2065 19.8364 40.3374 21.0123C39.4172 22.2904 38.3947 23.5174 37.4744 24.8466C36.5542 26.0736 36.6053 26.6871 37.6789 27.7096Z"/>
  </symbol>

  <symbol id="fb" viewBox="0 0 50 50" preserveAspectRatio="xMidYMid">
    <g fill="currentColor">
      <path d="M29.0332 49.6777C28.8281 49.707 28.6133 49.7461 28.4082 49.7754C28.6133 49.7363 28.8184 49.707 29.0332 49.6777Z"/>
      <path d="M29.5312 49.5898C29.4336 49.6094 29.3359 49.6289 29.2285 49.6387C29.3359 49.6289 29.4336 49.6094 29.5312 49.5898Z"/>
      <path d="M27.8418 49.834C27.5977 49.8633 27.3535 49.8828 27.1094 49.9023C27.3535 49.8926 27.5977 49.8633 27.8418 49.834Z"/>
      <path d="M28.3301 49.7754C28.2129 49.7949 28.0957 49.8047 27.9785 49.8144C28.0859 49.8047 28.2129 49.7949 28.3301 49.7754Z"/>
      <path d="M30.2148 49.4531C30.127 49.4726 30.0391 49.4921 29.9512 49.5117C30.0391 49.4921 30.127 49.4726 30.2148 49.4531Z"/>
      <path d="M31.9043 49.0333C31.8359 49.0528 31.7578 49.0723 31.6895 49.0919C31.7578 49.0723 31.8262 49.0528 31.9043 49.0333Z"/>
      <path d="M31.3867 49.1699C31.3086 49.1895 31.2305 49.209 31.1523 49.2285C31.2402 49.2188 31.3086 49.1992 31.3867 49.1699Z"/>
      <path d="M30.7227 49.3457C30.6445 49.3652 30.5566 49.3848 30.4785 49.4043C30.5566 49.375 30.6445 49.3555 30.7227 49.3457Z"/>
      <path d="M27.0996 49.9122C26.9727 49.9219 26.8359 49.9317 26.709 49.9415C26.8359 49.9317 26.9727 49.9219 27.0996 49.9122Z"/>
      <path d="M50 25C50 11.1914 38.8086 0 25 0C11.1914 0 0 11.1914 0 25C0 38.8086 11.1914 50 25 50C25.1465 50 25.293 50 25.4395 49.9902V30.5371H20.0684V24.2773H25.4395V19.668C25.4395 14.3262 28.7012 11.416 33.4668 11.416C35.752 11.416 37.7148 11.582 38.2812 11.6602V17.2461H35C32.4121 17.2461 31.9043 18.4766 31.9043 20.2832V24.2676H38.1055L37.2949 30.5273H31.9043V49.0332C42.3535 46.0352 50 36.416 50 25Z"/>
      <path d="M26.6504 49.9413C26.3867 49.9609 26.1328 49.9706 25.8691 49.9804C26.1328 49.9706 26.3867 49.9609 26.6504 49.9413Z"/>
      <path d="M25.8594 49.9805C25.7227 49.9805 25.5859 49.9902 25.4492 49.9902C25.5762 49.9902 25.7129 49.9902 25.8594 49.9805Z"/>
    </g>
  </symbol>

  <symbol id="in" viewBox="0 0 50 50" preserveAspectRatio="xMidYMid">
    <g fill="currentColor">
      <path d="M29.7852 25C29.7852 27.6465 27.6465 29.7852 25 29.7852C22.3535 29.7852 20.2148 27.6465 20.2148 25C20.2148 22.3535 22.3535 20.2148 25 20.2148C27.6465 20.2148 29.7852 22.3535 29.7852 25Z"/>
      <path d="M36.1914 16.5331C35.957 15.9081 35.5957 15.3417 35.1172 14.8828C34.6582 14.4042 34.0918 14.0429 33.4668 13.8085C32.959 13.6132 32.1973 13.3788 30.8008 13.3105C29.2871 13.2421 28.8281 13.2226 25 13.2226C21.1621 13.2226 20.7129 13.2324 19.1992 13.3105C17.8027 13.3788 17.041 13.6132 16.5332 13.8085C15.9082 14.0429 15.3418 14.4042 14.8828 14.8828C14.4043 15.3417 14.043 15.9081 13.8086 16.5331C13.6133 17.041 13.3789 17.8027 13.3105 19.1992C13.2422 20.7128 13.2227 21.162 13.2227 24.9999C13.2227 28.8281 13.2422 29.287 13.3105 30.8007C13.3789 32.1972 13.6035 32.9589 13.8086 33.4667C14.043 34.0917 14.4043 34.6581 14.8828 35.1171C15.3418 35.5956 15.9082 35.957 16.5332 36.1913C17.041 36.3867 17.8027 36.621 19.1992 36.6894C20.7129 36.7577 21.1621 36.7773 25 36.7773C28.8379 36.7773 29.2871 36.7675 30.8008 36.6894C32.1973 36.621 32.959 36.3964 33.4668 36.1913C34.7168 35.7128 35.7129 34.7167 36.1914 33.4667C36.3867 32.9589 36.6211 32.1972 36.6895 30.8007C36.7578 29.287 36.7773 28.8281 36.7773 24.9999C36.7773 21.162 36.7676 20.7128 36.6895 19.1992C36.6211 17.8027 36.3867 17.041 36.1914 16.5331ZM25 32.373C20.9277 32.373 17.627 29.0722 17.627 24.9999C17.627 20.9277 20.9277 17.6269 25 17.6269C29.0723 17.6269 32.373 20.9277 32.373 24.9999C32.373 29.0722 29.0723 32.373 25 32.373ZM32.666 19.0624C31.7188 19.0624 30.9473 18.291 30.9473 17.3437C30.9473 16.3964 31.7188 15.6249 32.666 15.6249C33.6133 15.6249 34.3848 16.3964 34.3848 17.3437C34.3848 18.291 33.6133 19.0624 32.666 19.0624Z"/>
      <path d="M25 0C11.1914 0 0 11.1914 0 25C0 38.8086 11.1914 50 25 50C38.8086 50 50 38.8086 50 25C50 11.1914 38.8086 0 25 0ZM39.2676 30.918C39.1992 32.4414 38.9551 33.4863 38.6035 34.4043C37.8613 36.3281 36.3379 37.8613 34.4043 38.6035C33.4961 38.9551 32.4512 39.1992 30.918 39.2676C29.3848 39.3359 28.8965 39.3555 25 39.3555C21.1035 39.3555 20.6152 39.3359 19.082 39.2676C17.5586 39.1992 16.5137 38.9551 15.5957 38.6035C14.6387 38.2422 13.7695 37.6758 13.0566 36.9434C12.3242 36.2305 11.7578 35.3613 11.3965 34.4043C11.0449 33.4961 10.8008 32.4512 10.7324 30.918C10.6641 29.3848 10.6445 28.8965 10.6445 25C10.6445 21.1035 10.6641 20.6152 10.7324 19.082C10.8008 17.5586 11.0449 16.5137 11.3965 15.5957C11.7578 14.6387 12.3242 13.7695 13.0566 13.0566C13.7695 12.3242 14.6387 11.7578 15.5957 11.3965C16.5137 11.0449 17.5488 10.8008 19.082 10.7324C20.6152 10.6641 21.1035 10.6445 25 10.6445C28.8965 10.6445 29.3848 10.6641 30.918 10.7324C32.4414 10.8008 33.4863 11.0449 34.4043 11.3965C35.3613 11.7578 36.2305 12.3242 36.9434 13.0566C37.6758 13.7695 38.2422 14.6387 38.6035 15.5957C38.9551 16.5137 39.1992 17.5488 39.2676 19.082C39.3359 20.6152 39.3555 21.1035 39.3555 25C39.3555 28.8965 39.3359 29.3848 39.2676 30.918Z"/>
    </g>
  </symbol>

  <symbol id="tg" viewBox="0 0 50 50" preserveAspectRatio="xMidYMid">
    <path fill="currentColor" d="M25 50C38.8086 50 50 38.8086 50 25C50 11.1914 38.8086 0 25 0C11.1914 0 0 11.1914 0 25C0 38.8086 11.1914 50 25 50ZM11.4355 24.4629L35.5469 15.166C36.6699 14.7656 37.6465 15.4395 37.2754 17.1289L33.1738 36.4648C32.8711 37.832 32.0508 38.1738 30.918 37.5195L24.668 32.9102L21.6504 35.8105C21.3184 36.1426 21.0352 36.4258 20.3906 36.4258L20.8301 30.0684L32.4219 19.6094C32.9297 19.1699 32.3047 18.916 31.6406 19.3555L17.3242 28.3691L11.1523 26.4453C9.81445 26.0156 9.78516 25.1074 11.4355 24.4629Z"/>
  </symbol>

  <symbol id="close" viewBox="0 0 24 24" preserveAspectRatio="xMidYMid">
    <path fill="currentColor" d="M16.2667 12L23.2 5.06667C24.2667 4 24.2667 2.4 23.2 1.46667L22.6667 0.933333C21.6 -0.133333 20 -0.133333 19.0667 0.933333L12 7.73333L5.06667 0.8C4 -0.266667 2.4 -0.266667 1.33333 0.8L0.8 1.33333C-0.266667 2.4 -0.266667 4 0.8 4.93333L7.73333 12L0.8 18.9333C-0.266667 20 -0.266667 21.6 0.8 22.5333L1.33333 23.2C2.4 24.2667 4 24.2667 4.93333 23.2L12 16.2667L18.9333 23.2C20 24.2667 21.6 24.2667 22.5333 23.2L23.0667 22.6667C24.1333 21.6 24.1333 20 23.0667 19.0667L16.2667 12Z"/>
  </symbol>

  <symbol id="arrow" viewBox="0 0 15 29" preserveAspectRatio="xMidYMid">
    <path fill="transparent" d="M14 28L1.91422 15.9142C1.13317 15.1332 1.13317 13.8668 1.91421 13.0858L14 1" stroke="black" stroke-width="2" stroke-linecap="round"/>
  </symbol>

  <symbol id="gear" viewBox="0 0 42 42" preserveAspectRatio="xMidYMid">
    <g fill="currentColor">
      <path d="M21 10.1111C14.9956 10.1111 10.1111 14.9955 10.1111 21C10.1111 27.0044 14.9956 31.8889 21 31.8889C27.0044 31.8889 31.8889 27.0044 31.8889 21C31.8889 14.9955 27.0044 10.1111 21 10.1111ZM21 30.3333C15.8534 30.3333 11.6667 26.1465 11.6667 21C11.6667 15.8534 15.8534 11.6666 21 11.6666C26.1466 11.6666 30.3333 15.8534 30.3333 21C30.3333 26.1465 26.1466 30.3333 21 30.3333Z"/>
      <path d="M39.8378 16.3333H38.2682C37.8677 14.8462 37.2789 13.4229 36.5104 12.089L37.6196 10.9799C38.0279 10.5716 38.2527 10.0279 38.2527 9.45078C38.2527 8.87289 38.0279 8.33 37.6196 7.92089L34.0783 4.37967C33.2617 3.56378 31.8376 3.56222 31.0193 4.37967L29.9102 5.48878C28.5756 4.72111 27.153 4.13233 25.6667 3.73178V2.16222C25.6667 0.969889 24.6968 0 23.5044 0H18.4956C17.3032 0 16.3333 0.969889 16.3333 2.16222V3.73178C14.847 4.13233 13.4244 4.72111 12.089 5.48956L10.9799 4.38044C10.1624 3.56222 8.73755 3.56378 7.92089 4.38044L4.37967 7.92167C3.97133 8.33 3.74656 8.87367 3.74656 9.45156C3.74656 10.0287 3.97133 10.5716 4.37967 10.9807L5.48878 12.0898C4.72111 13.4229 4.13156 14.8462 3.73178 16.3333H2.16222C0.969889 16.3333 0 17.3032 0 18.4956V23.5037C0 24.6968 0.969889 25.6667 2.16222 25.6667H3.73178C4.13233 27.153 4.72111 28.5756 5.48956 29.911L4.38044 31.0201C3.97211 31.4284 3.74733 31.9721 3.74733 32.5492C3.74733 33.1271 3.97211 33.67 4.38044 34.0791L7.92167 37.6203C8.73833 38.4378 10.1632 38.4386 10.9807 37.6203L12.0898 36.5112C13.4252 37.2789 14.8478 37.8684 16.3341 38.269V39.8386C16.3341 41.0309 17.304 42.0008 18.4963 42.0008H23.5044C24.6968 42.0008 25.6667 41.0309 25.6667 39.8386V38.269C27.153 37.8684 28.5756 37.2797 29.911 36.5112L31.0201 37.6203C31.8383 38.4386 33.2617 38.437 34.0791 37.6203L37.6203 34.0791C38.0287 33.6708 38.2534 33.1271 38.2534 32.5492C38.2534 31.9721 38.0287 31.4292 37.6203 31.0201L36.5112 29.911C37.2789 28.5756 37.8684 27.153 38.269 25.6667H39.8386C41.0309 25.6667 42.0008 24.6968 42.0008 23.5044V18.4956C42 17.3032 41.0301 16.3333 39.8378 16.3333ZM40.4444 23.5044C40.4444 23.8389 40.1722 24.1111 39.8378 24.1111H37.044L36.904 24.7123C36.4988 26.4522 35.8159 28.1034 34.8717 29.6209L34.545 30.1451L36.5198 32.1199C36.757 32.3571 36.757 32.7421 36.5198 32.9786L32.9786 36.5198C32.7421 36.7562 32.3571 36.7578 32.1199 36.5198L30.1451 34.545L29.6209 34.8717C28.1042 35.8159 26.453 36.4996 24.7123 36.904L24.1111 37.044V39.8378C24.1111 40.1722 23.8389 40.4444 23.5044 40.4444H18.4956C18.1611 40.4444 17.8889 40.1722 17.8889 39.8378V37.044L17.2877 36.904C15.5478 36.4988 13.8966 35.8159 12.3791 34.8717L11.8549 34.545L9.88011 36.5198C9.64211 36.7578 9.25711 36.7562 9.02144 36.5198L5.48022 32.9786C5.243 32.7413 5.243 32.3563 5.48022 32.1199L7.455 30.1451L7.12833 29.6209C6.18411 28.1042 5.50044 26.453 5.096 24.7123L4.956 24.1111H2.16222C1.82778 24.1111 1.55556 23.8389 1.55556 23.5044V18.4956C1.55556 18.1611 1.82778 17.8889 2.16222 17.8889H4.956L5.096 17.2877C5.50122 15.547 6.18411 13.8958 7.12833 12.3791L7.455 11.8549L5.48022 9.88011C5.243 9.64289 5.243 9.25789 5.48022 9.02144L9.02144 5.48022C9.25789 5.24378 9.64289 5.24222 9.88011 5.48022L11.8549 7.455L12.3791 7.12833C13.8958 6.18411 15.547 5.50044 17.2877 5.096L17.8889 4.956V2.16222C17.8889 1.82778 18.1611 1.55556 18.4956 1.55556H23.5037C23.8389 1.55556 24.1111 1.82778 24.1111 2.16222V4.956L24.7123 5.096C26.4522 5.50122 28.1034 6.18411 29.6209 7.12833L30.1451 7.455L32.1199 5.48022C32.3579 5.24222 32.7429 5.24378 32.9786 5.48022L36.5198 9.02144C36.757 9.25867 36.757 9.64367 36.5198 9.88011L34.545 11.8549L34.8717 12.3791C35.8159 13.895 36.4996 15.5462 36.904 17.2877L37.044 17.8889H39.8378C40.1722 17.8889 40.4444 18.1611 40.4444 18.4956V23.5044Z"/>
      <path d="M21 13.2222C16.7113 13.2222 13.2222 16.7113 13.2222 20.9999C13.2222 25.2886 16.7113 28.7777 21 28.7777C25.2887 28.7777 28.7778 25.2886 28.7778 20.9999C28.7778 16.7113 25.2887 13.2222 21 13.2222ZM21 27.2222C17.5692 27.2222 14.7778 24.4307 14.7778 20.9999C14.7778 17.5692 17.5692 14.7777 21 14.7777C24.4308 14.7777 27.2222 17.5692 27.2222 20.9999C27.2222 24.4307 24.4308 27.2222 21 27.2222Z"/>
    </g>
  </symbol>

  <symbol id="spec1" viewBox="0 0 24 24" preserveAspectRatio="xMidYMid">
    <g fill="currentColor">
      <path d="M20.3373 6.39972H14.9742C15.5392 5.7226 15.88 4.85193 15.88 3.90308C15.88 1.75085 14.1292 0 11.9771 0C9.82489 0 8.07404 1.75085 8.07404 3.90308C8.07404 4.85193 8.41479 5.7226 8.97986 6.39972H3.6167L0.28125 24H23.6728L20.3373 6.39972ZM11.9771 1.40625C13.3537 1.40625 14.4738 2.52631 14.4738 3.90308C14.4738 5.27966 13.3537 6.39972 11.9771 6.39972C10.6003 6.39972 9.48029 5.27966 9.48029 3.90308C9.48029 2.52631 10.6003 1.40625 11.9771 1.40625ZM4.78143 7.80597H19.1726L21.975 22.5938H1.979L4.78143 7.80597Z"/>
      <path d="M12.0055 12.4026H10.4094L8.17786 14.631V12.4026H7.03088V18.0225H8.17786V16.1017L8.75629 15.5378L10.5044 18.0225H11.985L9.57532 14.7497L12.0055 12.4026Z"/>
      <path d="M14.2747 16.0007H15.7903V16.617C15.6685 16.7058 15.5026 16.793 15.2955 16.8766C15.0436 16.9786 14.7817 17.0303 14.5177 17.0303C14.2154 17.0303 13.9261 16.9627 13.6575 16.8294C13.3986 16.701 13.2063 16.5092 13.0701 16.2426C12.9294 15.9677 12.8582 15.6152 12.8582 15.195C12.8582 14.8546 12.9186 14.5355 13.0371 14.2474C13.1041 14.0872 13.1995 13.938 13.3207 13.8034C13.4363 13.6752 13.5936 13.569 13.7878 13.4879C13.9858 13.4053 14.2277 13.3634 14.5071 13.3634C14.7347 13.3634 14.9432 13.4028 15.1269 13.4804C15.3016 13.5542 15.4356 13.6511 15.5251 13.7681C15.6222 13.8948 15.7062 14.0775 15.7751 14.3113L15.8395 14.5302L16.8955 14.2405L16.8386 14.0191C16.7417 13.6419 16.5959 13.329 16.4052 13.0886C16.2094 12.8419 15.939 12.6482 15.601 12.5127C15.2736 12.3814 14.9044 12.3149 14.5036 12.3149C13.9539 12.3149 13.4592 12.4307 13.0331 12.6588C12.5969 12.8925 12.2585 13.2534 12.028 13.7314C11.8037 14.1962 11.6902 14.7026 11.6902 15.2373C11.6902 15.7786 11.8052 16.277 12.0324 16.7184C12.2648 17.1703 12.6132 17.5203 13.0684 17.7587C13.5139 17.9921 14.0145 18.1106 14.5563 18.1106C14.9579 18.1106 15.3547 18.0375 15.7357 17.8932C16.1131 17.7506 16.4832 17.5356 16.8356 17.2546L16.9233 17.1848V14.9271L14.2747 14.9313V16.0007Z"/>
    </g>
  </symbol>

  <symbol id="spec2" viewBox="0 0 24 24" preserveAspectRatio="xMidYMid">
    <g fill="currentColor">
      <path d="M5.25 4.5C2.355 4.5 0 6.855 0 9.75C0 12.444 4.212 17.2155 4.692 17.751C4.8345 17.9085 5.037 18 5.25 18C5.463 18 5.6655 17.9085 5.808 17.751C6.288 17.2155 10.5 12.444 10.5 9.75C10.5 6.855 8.145 4.5 5.25 4.5ZM5.25 16.1055C3.612 14.163 1.5 11.181 1.5 9.75C1.5 7.683 3.183 6 5.25 6C7.317 6 9 7.683 9 9.75C9 11.1795 6.888 14.163 5.25 16.1055Z"/>
      <path d="M5.25 7.5C4.0095 7.5 3 8.5095 3 9.75C3 10.9905 4.0095 12 5.25 12C6.4905 12 7.5 10.9905 7.5 9.75C7.5 8.5095 6.4905 7.5 5.25 7.5ZM5.25 10.5C4.836 10.5 4.5 10.164 4.5 9.75C4.5 9.336 4.836 9 5.25 9C5.664 9 6 9.336 6 9.75C6 10.164 5.664 10.5 5.25 10.5Z"/>
      <path d="M23.25 0H17.25C16.836 0 16.5 0.336 16.5 0.75V5.25V8.25C16.5 8.664 16.836 9 17.25 9C17.664 9 18 8.664 18 8.25V6H23.25C23.664 6 24 5.664 24 5.25V0.75C24 0.336 23.664 0 23.25 0ZM22.5 4.5H18V1.5H22.5V4.5Z"/>
      <path d="M21 16.5H13.5C12.6735 16.5 12 15.8265 12 15C12 14.1735 12.6735 13.5 13.5 13.5H15.138C15.4485 14.3715 16.2735 15 17.25 15C18.4905 15 19.5 13.9905 19.5 12.75C19.5 11.5095 18.4905 10.5 17.25 10.5C16.2735 10.5 15.4485 11.1285 15.138 12H13.5C11.8455 12 10.5 13.3455 10.5 15C10.5 16.6545 11.8455 18 13.5 18H21C21.8265 18 22.5 18.6735 22.5 19.5C22.5 20.3265 21.8265 21 21 21H7.362C7.0515 20.1285 6.2265 19.5 5.25 19.5C4.0095 19.5 3 20.5095 3 21.75C3 22.9905 4.0095 24 5.25 24C6.2265 24 7.0515 23.3715 7.362 22.5H21C22.6545 22.5 24 21.1545 24 19.5C24 17.8455 22.6545 16.5 21 16.5ZM17.25 12C17.664 12 18 12.336 18 12.75C18 13.164 17.664 13.5 17.25 13.5C16.836 13.5 16.5 13.164 16.5 12.75C16.5 12.336 16.836 12 17.25 12ZM5.25 22.5C4.836 22.5 4.5 22.164 4.5 21.75C4.5 21.336 4.836 21 5.25 21C5.664 21 6 21.336 6 21.75C6 22.164 5.664 22.5 5.25 22.5Z"/>
    </g>
  </symbol>

  <symbol id="spec3" viewBox="0 0 24 24" preserveAspectRatio="xMidYMid">
    <g fill="currentColor">
      <path d="M18.2054 17.5212L13.1636 12L18.2054 6.47944C18.3637 6.30559 18.4445 6.07393 18.4276 5.83904C18.4107 5.60391 18.2984 5.38594 18.1163 5.23646L11.9874 0.195941C11.7305 -0.015418 11.3753 -0.0598087 11.0746 0.0825508C10.7739 0.224301 10.5823 0.526739 10.5823 0.85927V9.17363L7.06391 5.32046C6.74426 4.97021 6.20042 4.94555 5.85017 5.26548C5.49992 5.5854 5.47526 6.12868 5.79518 6.47921L10.5823 11.7217V12.2784L5.79523 17.5212C5.47503 17.8712 5.49968 18.4148 5.85022 18.7349C6.20075 19.0551 6.74408 19.0305 7.06395 18.6797L10.5821 14.827V23.1408C10.5821 23.473 10.774 23.7758 11.0744 23.9178C11.1913 23.9728 11.3167 24.0001 11.4413 24.0001C11.6369 24.0001 11.8305 23.9336 11.9874 23.8047L18.1163 18.7641C18.2984 18.6144 18.4107 18.3964 18.4276 18.1615C18.4445 17.9267 18.3643 17.695 18.2054 17.5212ZM12.3007 2.6784L16.326 5.98857L12.3007 10.3968V2.6784ZM12.3007 21.3217V13.6036L16.326 18.0115L12.3007 21.3217Z"/>
    </g>
  </symbol>

  <symbol id="spec4" viewBox="0 0 24 24" preserveAspectRatio="xMidYMid">
    <g fill="currentColor">
      <path d="M22.08 7.22742V5.1261C22.08 4.73627 21.7639 4.42022 21.3741 4.42022H18.096C17.7062 4.42022 17.3901 4.73627 17.3901 5.1261V7.22742C17.0301 7.25961 16.7478 7.56173 16.7478 7.9301V11.7258C16.7478 12.5907 17.4515 13.2943 18.3164 13.2943H19.0292V20.8141C19.0292 21.7924 18.2331 22.5882 17.2546 22.5882H9.53835C8.56009 22.5882 7.76423 21.7924 7.76423 20.8141V19.2941H9.26541C9.65524 19.2941 9.97129 18.9781 9.97129 18.5882V16.298H10.7211C11.8887 16.298 12.8387 15.348 12.8387 14.1804V7.7782C12.8387 6.82606 12.207 6.01886 11.3407 5.75326V3.33269C11.3407 2.94286 11.0247 2.62681 10.6348 2.62681H9.64705V0.705867C9.64705 0.316032 9.33101 -1.52588e-05 8.94117 -1.52588e-05C8.55133 -1.52588e-05 8.23529 0.316032 8.23529 0.705867V2.62681H5.88141V0.705867C5.88141 0.316032 5.56536 -1.52588e-05 5.17552 -1.52588e-05C4.78569 -1.52588e-05 4.46964 0.316032 4.46964 0.705867V2.62681H3.48188C3.09204 2.62681 2.77599 2.94286 2.77599 3.33269V5.75326C1.90969 6.01886 1.27797 6.82601 1.27797 7.7782V14.1804C1.27797 15.348 2.22795 16.298 3.39562 16.298H4.1454V18.5882C4.1454 18.9781 4.46145 19.2941 4.85129 19.2941H6.35246V20.8141C6.35246 22.5708 7.78164 24 9.53835 24H17.2546C19.0115 24 20.4409 22.5708 20.4409 20.8141V13.2943H21.1535C22.0184 13.2943 22.7221 12.5907 22.7221 11.7258V7.9301C22.7221 7.56177 22.4399 7.25975 22.08 7.22742ZM9.92894 4.03857V5.66055H4.18776V4.03857H9.92894ZM2.68969 14.1804V7.7782C2.68969 7.38897 3.00635 7.07231 3.39557 7.07231H10.7211C11.1103 7.07231 11.427 7.38897 11.427 7.7782V14.1804C11.427 14.5696 11.1103 14.8862 10.7211 14.8862C10.4253 14.8862 3.73246 14.8862 3.39557 14.8862C3.00635 14.8862 2.68969 14.5696 2.68969 14.1804ZM5.55717 16.298H8.55952V17.8823H5.55717V16.298ZM20.6682 5.83198V7.22422H18.8019V5.83198H20.6682ZM21.3103 11.7258C21.3103 11.8122 21.2399 11.8825 21.1535 11.8825C21.0671 11.8825 19.1153 11.8825 18.3164 11.8825C18.2299 11.8825 18.1596 11.8122 18.1596 11.7258V8.63598H21.3103V11.7258Z"/>
      <path d="M6.16377 11.6852H6.87986L6.56777 12.409C6.41341 12.767 6.5785 13.1823 6.93643 13.3367C7.29497 13.4911 7.70994 13.3256 7.8641 12.968L8.60109 11.2588C8.80203 10.7928 8.45925 10.2735 7.9529 10.2735H7.2368L7.5489 9.54969C7.70325 9.19172 7.53817 8.77633 7.18024 8.62198C6.82217 8.46767 6.40687 8.63275 6.25257 8.99068L5.51558 10.6998C5.31464 11.1657 5.65741 11.6852 6.16377 11.6852Z"/>
    </g>
  </symbol>

  <symbol id="spec5" viewBox="0 0 24 24" preserveAspectRatio="xMidYMid">
    <g fill="currentColor">
      <path d="M24 1.78125H0V19.2266H14.7643V22.2543L17.3884 20.9725L20.0125 22.2543V19.2266H24V1.78125ZM17.3884 16.413C16.0701 16.413 14.9978 15.3406 14.9978 14.0224C14.9978 12.7042 16.0701 11.6318 17.3884 11.6318C18.7066 11.6318 19.7791 12.7042 19.7791 14.0224C19.7791 15.3406 18.7066 16.413 17.3884 16.413ZM17.3884 19.4075L16.1706 20.0023V17.6177C16.5531 17.7477 16.9623 17.8193 17.3884 17.8193C17.8143 17.8193 18.2236 17.7477 18.6063 17.6177V20.0023L17.3884 19.4075ZM22.5938 17.8204H20.0125V16.7626C20.7343 16.071 21.1853 15.0987 21.1853 14.0224C21.1853 11.9288 19.4821 10.2255 17.3884 10.2255C15.2948 10.2255 13.5916 11.9288 13.5916 14.0224C13.5916 15.0987 14.0424 16.0712 14.7643 16.7626V17.8204H1.40625V3.1875H22.5938V17.8204Z"/>
      <path d="M2.81415 7.41064H21.1859V8.81689H2.81415V7.41064Z"/>
      <path d="M4.92517 4.59595H19.0748V6.0022H4.92517V4.59595Z"/>
      <path d="M2.81415 15.0057H9.65442V16.4119H2.81415V15.0057Z"/>
      <path d="M2.81415 12.1908H9.65442V13.597H2.81415V12.1908Z"/>
    </g>
  </symbol>

  <symbol id="opener" viewBox="0 0 8 7" preserveAspectRatio="xMidYMid">
    <g fill="currentColor">
      <path d="M4 7L0.102887 0.249999L7.89711 0.25L4 7Z"/>
    </g>
  </symbol>

  <symbol id="play" viewBox="0 0 12 17" preserveAspectRatio="xMidYMid">
    <g fill="currentColor">
      <path d="M11.407 9.83723L2.94746 16.5769C2.1387 17.2184 0.948792 16.642 0.948792 15.6101V2.13072C0.948792 1.09885 2.1387 0.522487 2.94746 1.16392L11.407 7.90363C12.0205 8.39633 12.0205 9.34454 11.407 9.83723Z"/>
    </g>
  </symbol>

  <symbol id="pause" viewBox="0 0 512 512" preserveAspectRatio="xMidYMid">
    <g fill="currentColor">
      <path d="M113.8,0c47.1,0,85.3,38.2,85.3,85.3v341.3c0,47.1-38.2,85.3-85.3,85.3s-85.3-38.2-85.3-85.3V85.3C28.4,38.2,66.7,0,113.8,0z M398.2,0c47.1,0,85.3,38.2,85.3,85.3v341.3c0,47.1-38.2,85.3-85.3,85.3s-85.3-38.2-85.3-85.3V85.3C312.9,38.2,351.1,0,398.2,0z"/>
    </g>
  </symbol>

  <symbol id="volume" viewBox="0 0 14 17" preserveAspectRatio="xMidYMid">
    <g fill="currentColor">
      <path d="M11.1882 1.1738L5.01572 6.08205C4.56951 5.84035 4.05824 5.71021 3.51907 5.71021C1.77144 5.71021 0.358459 7.12319 0.358459 8.87083C0.358459 10.6185 1.77144 12.0314 3.51907 12.0314C4.05824 12.0314 4.56951 11.892 5.01572 11.6596L11.1882 16.5771C11.997 17.2186 13.1868 16.6422 13.1868 15.6104V2.13128C13.1868 1.09943 11.997 0.523086 11.1882 1.1738Z"/>
    </g>
  </symbol>

  <symbol id="placemark" viewBox="0 0 76 95" preserveAspectRatio="xMidYMid">
    <g fill="currentColor">
      <path d="M38 0C24.7826 0 0 10 0 38.3333C0 66.6667 38 95 38 95C38 95 76 66.6667 76 38.3333C76 10 51.2174 0 38 0Z" fill="#E01F3D"/>
      <path d="M38 44C41.3 44 44 41.3 44 38C44 34.7 41.3 32 38 32C34.7 32 32 34.7 32 38C32 41.3 34.7 44 38 44ZM38 18C36 18 33.9 18.3 32 18.9V30C36.4 26.7 42.7 27.6 46 32C49.3 36.4 48.4 42.7 44 46C39.6 49.3 33.3 48.4 30 44C28.7 42.3 28 40.2 28 38V20.7C18.4 26.2 15.2 38.4 20.7 48C26.2 57.6 38.4 60.8 48 55.3C57.6 49.8 60.8 37.6 55.3 28C51.8 21.8 45.2 18 38 18Z" fill="white"/>
    </g>
  </symbol>
</svg>