<svg width="50" height="50" viewBox="0 0 50 50" fill="none" xmlns="http://www.w3.org/2000/svg">
<path d="M25 50C38.8086 50 50 38.8086 50 25C50 11.1914 38.8086 0 25 0C11.1914 0 0 11.1914 0 25C0 38.8086 11.1914 50 25 50ZM11.4355 24.4629L35.5469 15.166C36.6699 14.7656 37.6465 15.4395 37.2754 17.1289L33.1738 36.4648C32.8711 37.832 32.0508 38.1738 30.918 37.5195L24.668 32.9102L21.6504 35.8105C21.3184 36.1426 21.0352 36.4258 20.3906 36.4258L20.8301 30.0684L32.4219 19.6094C32.9297 19.1699 32.3047 18.916 31.6406 19.3555L17.3242 28.3691L11.1523 26.4453C9.81445 26.0156 9.78516 25.1074 11.4355 24.4629Z" fill="#B3B3B3"/>
</svg>
