<svg width="50" height="50" viewBox="0 0 50 50" fill="none" xmlns="http://www.w3.org/2000/svg">
<path d="M25 0C11.1963 0 0 11.1963 0 25C0 38.8037 11.1963 50 25 50C38.8037 50 50 38.8037 50 25C50 11.1963 38.8037 0 25 0ZM37.6789 27.7096C38.8548 28.8344 40.0818 29.908 41.1043 31.1861C41.5644 31.7485 42.0245 32.3108 42.3313 32.9755C42.7914 33.8957 42.3824 34.9182 41.5644 34.9693H36.4519C35.1227 35.0716 34.1002 34.5603 33.18 33.6401C32.4642 32.9243 31.7996 32.1575 31.135 31.3906C30.8793 31.0838 30.5726 30.7771 30.2147 30.5726C29.499 30.1125 28.8855 30.2658 28.5276 30.9816C28.1186 31.7485 28.0164 32.5665 27.9652 33.3845C27.9141 34.6115 27.5562 34.9182 26.3292 34.9693C23.7219 35.0716 21.2679 34.7137 19.0184 33.3845C17.0245 32.2086 15.4397 30.6237 14.1104 28.7832C11.4519 25.2045 9.45808 21.2679 7.61759 17.229C7.20859 16.3088 7.51534 15.8487 8.53783 15.7975C10.2249 15.7464 11.8609 15.7464 13.5481 15.7975C14.2127 15.7975 14.6728 16.2065 14.9284 16.82C15.8487 19.0184 16.9223 21.1656 18.3027 23.1084C18.6605 23.6196 19.0695 24.1309 19.5808 24.5399C20.1943 24.9489 20.6033 24.7955 20.91 24.1309C21.0634 23.7219 21.1656 23.2618 21.2168 22.8016C21.3701 21.2679 21.3701 19.7342 21.1145 18.2004C20.9611 17.1779 20.4499 16.5644 19.4785 16.3599C18.9673 16.2577 19.0695 16.1043 19.274 15.7975C19.683 15.3374 20.092 15.0307 20.8589 15.0307H26.636C27.5562 15.2352 27.7607 15.593 27.863 16.5133V22.955C27.863 23.3129 28.0164 24.3865 28.681 24.591C29.1922 24.7444 29.5501 24.3354 29.8569 24.0286C31.2372 22.546 32.2086 20.8078 33.1288 19.0184C33.5378 18.2004 33.8446 17.3824 34.2025 16.5644C34.4581 15.9509 34.816 15.6442 35.5317 15.6442H41.1043C41.2577 15.6442 41.411 15.6442 41.6155 15.6953C42.5358 15.8487 42.7914 16.2577 42.5358 17.1779C42.0757 18.6094 41.2065 19.8364 40.3374 21.0123C39.4172 22.2904 38.3947 23.5174 37.4744 24.8466C36.5542 26.0736 36.6053 26.6871 37.6789 27.7096Z" fill="#B3B3B3"/>
</svg>
